PathFileType	4	(X/Y/Z)	C:/Users/opensim2020/Desktop/walking_exp_matlab/subject02_walking06_static.trc																																																																																																																									
DataRate	CameraRate	NumFrames	NumMarkers	Units	OrigDataRate	OrigDataStartFrame	OrigNumFrames																																																																																																																					
100	100	7	41	mm	100	216	287																																																																																																																					
Frame#	Time	LFHD			RFHD			LBHD			RBHD			C7			T10			CLAV			STRN			RBAK			LSHO			LUPA			LELB			LFRM			LWRA			LWRB			LFIN			RSHO			RUPA			RELB			RFRM			RWRA			RWRB			RFIN			LASI			RASI			LPSI			RPSI			LTHI			LKNE			LTIB			LANK			LHEE			LTOE			RTHI			RKNE			RTIB			RANK			RHEE			RTOE			*39			*40		
		X1	Y1	Z1	X2	Y2	Z2	X3	Y3	Z3	X4	Y4	Z4	X5	Y5	Z5	X6	Y6	Z6	X7	Y7	Z7	X8	Y8	Z8	X9	Y9	Z9	X10	Y10	Z10	X11	Y11	Z11	X12	Y12	Z12	X13	Y13	Z13	X14	Y14	Z14	X15	Y15	Z15	X16	Y16	Z16	X17	Y17	Z17	X18	Y18	Z18	X19	Y19	Z19	X20	Y20	Z20	X21	Y21	Z21	X22	Y22	Z22	X23	Y23	Z23	X24	Y24	Z24	X25	Y25	Z25	X26	Y26	Z26	X27	Y27	Z27	X28	Y28	Z28	X29	Y29	Z29	X30	Y30	Z30	X31	Y31	Z31	X32	Y32	Z32	X33	Y33	Z33	X34	Y34	Z34	X35	Y35	Z35	X36	Y36	Z36	X37	Y37	Z37	X38	Y38	Z38	X39	Y39	Z39	X40	Y40	Z40	X41	Y41	Z41
																																																																																																																												
216	2.15	22.89924	1750.29395	-696.6698	11.50476	1731.89612	-554.59631	-100.61075	1665.67566	-717.14001	-124.52344	1644.94836	-576.91278	-149.02869	1522.33801	-642.75024	-188.9854	1247.95459	-639.44299	0.96421	1472.46362	-651.67035	65.44083	1304.53406	-640.50531	-187.96077	1350.48291	-569.89026	-57.09978	1513.11694	-818.97626	-52.60728	1329.46057	-926.7691	-56.80405	1188.39368	-956.46277	-32.58541	1054.66724	-962.78894	24.13839	937.41064	-911.84088	-12.49476	933.35278	-954.88007	14.888	873.43323	-951.80096	-53.55725	1509.28149	-460.82642	-56.86101	1336.52197	-347.73419	-33.13688	1190.65234	-316.76428	6.66346	1073.53589	-308.51733	50.79522	949.39398	-343.98859	19.97408	943.33514	-297.43478	60.90936	884.87299	-308.91321	42.14074	994.23541	-758.94397	32.31094	986.34644	-508.37558	-169.0484	1028.31616	-690.23676	-177.98166	1029.72473	-575.51215	-33.04568	686.06592	-839.10565	-67.95995	484.18726	-828.10333	-124.51137	299.75418	-852.00641	-116.09244	72.56119	-847.18604	-151.5849	41.00416	-801.23615	42.88939	30.99018	-860.28687	-55.54807	682.4975	-415.5842	-56.89973	471.27045	-431.89996	-109.71751	292.02716	-404.16779	-133.52361	97.06425	-415.29147	-166.47308	37.5179	-465.25992	15.43965	37.97369	-379.80362	-91.83398	1808.23071	-617.36804	3360.31982	1033.89075	2845.10718
217	2.16	23.04727	1750.24915	-696.69647	11.60221	1731.86108	-554.62653	-100.48994	1665.67847	-717.1568	-124.43588	1644.98071	-576.90631	-148.98882	1522.34216	-642.75055	-188.97189	1247.92651	-639.46051	0.98553	1472.41736	-651.71741	65.45191	1304.48816	-640.54272	-187.87328	1350.42334	-570.11261	-57.1343	1512.99365	-818.96802	-52.57403	1329.40259	-926.92297	-56.79268	1188.35803	-956.46173	-32.61603	1054.50195	-962.42511	24.24916	937.28217	-911.78864	-12.39899	933.34729	-955.00146	14.95997	873.40015	-951.86011	-53.52757	1509.23669	-460.84698	-56.80121	1336.56592	-347.61871	-33.16883	1190.66064	-316.69882	6.85442	1073.65442	-308.13766	50.73203	949.38995	-343.81985	19.95907	943.34631	-297.25647	60.91149	884.90601	-308.64877	42.1784	994.17853	-758.95874	32.37595	986.33862	-508.37399	-169.00558	1028.28198	-690.22076	-177.93797	1029.71741	-575.5307	-33.01408	686.01361	-839.02301	-67.9346	484.18076	-828.13153	-124.59837	299.78983	-852.0824	-116.07771	72.56084	-847.21472	-151.59256	40.97341	-801.2301	42.88203	30.99466	-860.31494	-55.54195	682.46124	-415.62604	-56.86847	471.28543	-431.86621	-109.71681	292.06616	-404.14804	-133.50879	97.08479	-415.29688	-166.48926	37.53606	-465.25134	15.45513	37.94867	-379.82501	-91.64515	1808.20923	-617.40552	3360.38989	1033.88477	2845.17407
218	2.17	23.1908	1750.17139	-696.74658	11.84113	1731.8042	-554.65924	-100.4027	1665.67456	-717.18054	-124.31728	1644.96619	-576.94208	-148.93034	1522.3175	-642.76324	-188.92896	1247.90222	-639.49457	1.00346	1472.3833	-651.72729	65.50055	1304.44348	-640.56512	-187.83513	1350.08093	-570.38867	-57.12963	1513.03088	-819.03363	-52.58937	1329.33899	-926.93243	-56.76434	1188.32959	-956.50446	-32.56292	1054.47058	-962.48596	24.35308	937.2547	-911.86029	-12.30284	933.29535	-955.05878	14.99668	873.37396	-951.93097	-53.47307	1509.23096	-460.87326	-56.55944	1336.57068	-347.8013	-33.17445	1190.67773	-316.63675	6.89728	1073.32849	-308.22653	50.76787	949.37787	-343.59607	19.93841	943.34955	-297.06241	60.98254	884.95715	-308.35873	42.22837	994.15411	-758.9787	32.41511	986.31738	-508.39832	-168.97595	1028.25745	-690.22662	-177.89127	1029.67908	-575.50916	-32.97884	685.98328	-839.04578	-67.92316	484.16159	-828.12836	-124.48455	299.70868	-851.97925	-116.09444	72.55614	-847.21301	-151.59082	40.97825	-801.23236	42.86993	30.98487	-860.31866	-55.49154	682.48279	-415.67392	-56.81157	471.26913	-431.90182	-109.68183	292.04123	-404.16333	-133.52023	97.05402	-415.28787	-166.68358	37.5917	-465.18784	15.45397	37.93416	-379.80197	-91.48009	1808.19653	-617.43951	3360.31934	1033.96521	2845.07813
219	2.18	23.31664	1750.12878	-696.76385	11.96832	1731.76721	-554.69934	-100.33761	1665.70972	-717.17053	-124.26344	1645.00647	-576.95819	-148.89661	1522.3092	-642.76923	-188.86676	1247.87439	-639.47638	1.04936	1472.37402	-651.75024	65.53297	1304.42419	-640.61945	-187.9091	1350.13965	-569.88147	-57.12601	1512.99146	-819.04376	-52.61905	1329.29614	-926.94977	-56.74645	1188.28406	-956.53333	-32.48246	1054.51929	-962.83502	24.41221	937.25513	-911.93158	-12.3177	933.25726	-955.047	14.93395	873.32568	-951.86847	-53.42995	1509.14978	-460.85837	-56.3158	1336.35803	-348.05243	-33.16669	1190.65735	-316.55557	6.78783	1073.30469	-308.21677	50.79033	949.36163	-343.41714	20.22365	943.38892	-297.13678	60.98258	884.97137	-308.14569	42.26463	994.15045	-758.97998	32.47818	986.31299	-508.39337	-168.95099	1028.24133	-690.22803	-177.85001	1029.65332	-575.52869	-32.94547	685.99689	-839.04321	-67.91393	484.14136	-828.11566	-124.48324	299.72281	-851.99738	-116.09646	72.5699	-847.22015	-151.59308	40.96333	-801.21802	42.87611	30.9766	-860.30878	-55.44586	682.45941	-415.68381	-56.76126	471.25314	-432.04257	-109.66606	292.00974	-404.16602	-133.51425	97.06278	-415.30508	-166.48784	37.54237	-465.29752	15.45587	37.95538	-379.80206	-91.29092	1808.21545	-617.46362	3357.3125	1033.98621	2845.7644
220	2.19	23.45222	1750.07483	-696.82404	12.12499	1731.72607	-554.72162	-100.25465	1665.72278	-717.18121	-124.13824	1645.03137	-576.96295	-148.83324	1522.29541	-642.75555	-188.81718	1247.87354	-639.45026	1.0725	1472.35388	-651.75812	65.5471	1304.39807	-640.64777	-187.85573	1350.1217	-569.83295	-57.12658	1512.88977	-819.02618	-52.73273	1329.28918	-926.84723	-56.71906	1188.2583	-956.57709	-32.49682	1054.39661	-962.56787	24.50125	937.22491	-912.01703	-12.20543	933.24438	-955.17755	14.98262	873.26031	-951.87494	-53.38904	1509.08606	-460.88983	-56.80156	1336.55859	-347.98849	-33.15991	1190.62439	-316.47675	6.79606	1073.27722	-308.05618	50.83305	949.33533	-343.18884	20.09858	943.27838	-296.9122	60.96146	884.92957	-307.93018	42.32562	994.1593	-758.9967	32.55458	986.32294	-508.4025	-168.92215	1028.20972	-690.24597	-177.79756	1029.6499	-575.54541	-32.91075	685.90253	-838.78967	-67.88837	484.14426	-828.12341	-124.46105	299.70999	-851.96967	-116.12621	72.58271	-847.21265	-151.59367	40.97056	-801.24323	42.88804	30.95847	-860.29498	-55.27891	682.19763	-416.12256	-56.75949	471.23038	-431.92358	-109.63504	292.02435	-404.17795	-133.5	97.05998	-415.30252	-166.63776	37.64117	-465.19647	15.46446	37.92728	-379.7905	-91.08704	1808.22119	-617.4292	3360.17944	1033.90125	2845.05981
221	2.2	23.56966	1750.02319	-696.86835	12.31362	1731.70422	-554.74493	-100.16286	1665.76306	-717.19916	-124.03226	1645.07336	-576.94641	-148.77554	1522.30701	-642.74615	-188.75223	1247.89868	-639.42957	1.09995	1472.33191	-651.77667	65.56288	1304.36462	-640.67072	-187.72899	1350.05322	-570.2677	-57.10744	1512.9491	-819.0755	-52.70063	1329.26428	-926.86041	-56.7175	1188.22314	-956.62219	-32.47397	1054.39209	-962.63965	24.60676	937.22589	-912.12097	-12.26239	933.25116	-955.13373	15.15616	873.185	-951.98907	-53.33036	1509.02515	-460.86746	-56.71733	1336.50745	-347.97995	-33.1391	1190.60278	-316.43036	6.77752	1073.24475	-307.99808	50.80376	949.28601	-343.00095	19.90631	943.30115	-296.45496	60.90293	884.86633	-307.71429	42.3592	994.18671	-759.02124	32.57253	986.29028	-508.43665	-168.86116	1028.19751	-690.22949	-177.76398	1029.63269	-575.52692	-32.89108	685.90845	-838.8136	-67.87989	484.1351	-828.11823	-124.4518	299.7012	-851.98065	-116.0979	72.55723	-847.19434	-151.60023	40.96148	-801.21259	42.88468	30.97223	-860.31049	-55.3025	682.42841	-415.71249	-56.72751	471.22235	-431.96289	-109.58462	292.02289	-404.19724	-133.4864	97.08163	-415.3241	-166.47462	37.51208	-465.30771	15.46132	37.93258	-379.80429	-90.90388	1808.23914	-617.42419	3357.49927	1034.06482	2845.86084
222	2.21	23.71062	1749.98389	-696.88599	12.45956	1731.65063	-554.75891	-100.09813	1665.80981	-717.17908	-123.90895	1645.07361	-576.948	-148.7249	1522.31995	-642.75836	-188.6937	1247.88916	-639.41809	1.12196	1472.31787	-651.80261	65.57785	1304.33655	-640.69409	-187.70894	1350.27869	-569.87402	-57.09482	1512.92505	-819.09583	-52.67235	1329.24292	-926.86542	-56.7147	1188.19617	-956.64191	-32.451	1054.38867	-962.69415	24.56575	937.3125	-912.33923	-12.23997	933.24457	-955.42279	15.15096	873.24286	-952.12347	-53.28209	1508.97253	-460.87714	-56.23994	1336.24768	-348.01489	-33.0787	1190.55054	-316.39517	6.78947	1073.18835	-307.89755	50.80161	949.18793	-342.80508	19.83143	943.26221	-296.29037	60.85957	884.81067	-307.51135	42.38953	994.18066	-758.99835	32.66233	986.29993	-508.44141	-168.81818	1028.19226	-690.22906	-177.7247	1029.63025	-575.54456	-32.84624	685.87787	-838.77948	-67.86019	484.14734	-828.13464	-124.47076	299.71661	-851.96332	-116.10655	72.55952	-847.17761	-151.58554	40.97466	-801.20404	42.86697	30.99017	-860.31299	-55.49413	682.58417	-415.54333	-56.68328	471.23007	-431.94772	-109.59696	292.02332	-404.20822	-133.50282	97.07728	-415.30734	-166.49739	37.57237	-465.30933	15.48222	37.95203	-379.79266	-90.7423	1808.26843	-617.44702	3360.24512	1034.06848	2845.15625
